G04 Created with the python gerber_writer 0.4.3.3*
G04 #@! TF.CreationDate,2026-06-12T21:50:37.761750*
G04 #@! TF.FileFunction,Soldermask,Bot*
G04 #@! TF.FilePolarity,Positive*
G04 #@! TF.GenerationSoftware,gradenna,gradenna.fab,0.1*
%MOMM*%
%FSLAX36Y36*%
G75*
%LPD*%
G04 #@! TA.AperFunction,Conductor*
G36*
X29791943Y6200000D02*
G01*
X29763051Y6788102D01*
X29676654Y7370541D01*
X29533585Y7941708D01*
X29335220Y8496100D01*
X29083470Y9028380D01*
X28780760Y9533421D01*
X28430005Y10006359D01*
X28034583Y10442640D01*
X27598302Y10838062D01*
X27125364Y11188817D01*
X26620323Y11491527D01*
X26088043Y11743277D01*
X25533651Y11941642D01*
X24962485Y12084711D01*
X24380046Y12171108D01*
X23791943Y12200000D01*
X23203840Y12171108D01*
X22621401Y12084711D01*
X22050235Y11941642D01*
X21495842Y11743277D01*
X20963562Y11491527D01*
X20458521Y11188817D01*
X19985583Y10838062D01*
X19549302Y10442640D01*
X19153880Y10006359D01*
X18803125Y9533421D01*
X18500415Y9028380D01*
X18248665Y8496100D01*
X18050301Y7941708D01*
X17907231Y7370541D01*
X17820834Y6788102D01*
X17791943Y6200000D01*
X17820834Y5611897D01*
X17907231Y5029458D01*
X18050301Y4458291D01*
X18248665Y3903899D01*
X18500415Y3371619D01*
X18803125Y2866578D01*
X19153880Y2393640D01*
X19549302Y1957359D01*
X19985583Y1561937D01*
X20458521Y1211182D01*
X20963562Y908472D01*
X21495842Y656722D01*
X22050235Y458357D01*
X22621401Y315288D01*
X23203840Y228891D01*
X23791943Y200000D01*
X24380046Y228891D01*
X24962485Y315288D01*
X25533651Y458357D01*
X26088043Y656722D01*
X26620323Y908472D01*
X27125364Y1211182D01*
X27598302Y1561937D01*
X28034583Y1957359D01*
X28430005Y2393640D01*
X28780760Y2866578D01*
X29083470Y3371619D01*
X29335220Y3903899D01*
X29533585Y4458291D01*
X29676654Y5029458D01*
X29763051Y5611897D01*
X29791943Y6200000D01*
G37*
G04 #@! TD*
M02*