<svg xmlns="http://www.w3.org/2000/svg" width="49.5839mm" height="41.1383mm" viewBox="0 0 49.5839 41.1383">
<rect width="100%" height="100%" fill="white"/>
<path d="M 1.0000,1.0000 L 48.5839,1.0000 L 48.5839,40.1383 L 1.0000,40.1383 L 1.0000,1.0000 Z M 26.7823,33.7423 L 26.7535,33.5481 L 26.7058,33.3578 L 26.6397,33.1730 L 26.5558,32.9955 L 26.4549,32.8272 L 26.3380,32.6695 L 26.2062,32.5241 L 26.0607,32.3923 L 25.9031,32.2754 L 25.7347,32.1745 L 25.5573,32.0906 L 25.3725,32.0244 L 25.1821,31.9768 L 24.9880,31.9480 L 24.7919,31.9383 L 24.5959,31.9480 L 24.4018,31.9768 L 24.2114,32.0244 L 24.0266,32.0906 L 23.8491,32.1745 L 23.6808,32.2754 L 23.5232,32.3923 L 23.3777,32.5241 L 23.2459,32.6695 L 23.1290,32.8272 L 23.0281,32.9955 L 22.9442,33.1730 L 22.8781,33.3578 L 22.8304,33.5481 L 22.8016,33.7423 L 22.7919,33.9383 L 22.8016,34.1344 L 22.8304,34.3285 L 22.8781,34.5189 L 22.9442,34.7037 L 23.0281,34.8811 L 23.1290,35.0495 L 23.2459,35.2071 L 23.3777,35.3525 L 23.5232,35.4843 L 23.6808,35.6013 L 23.8491,35.7022 L 24.0266,35.7861 L 24.2114,35.8522 L 24.4018,35.8999 L 24.5959,35.9287 L 24.7919,35.9383 L 24.9880,35.9287 L 25.1821,35.8999 L 25.3725,35.8522 L 25.5573,35.7861 L 25.7347,35.7022 L 25.9031,35.6013 L 26.0607,35.4843 L 26.2062,35.3525 L 26.3380,35.2071 L 26.4549,35.0495 L 26.5558,34.8811 L 26.6397,34.7037 L 26.7058,34.5189 L 26.7535,34.3285 L 26.7823,34.1344 L 26.7919,33.9383 L 26.7823,33.7423 Z" fill="#b87333" fill-rule="evenodd" stroke="none"/>
</svg>
